<svg id="Layer_1" data-name="Layer 1" xmlns="http://www.w3.org/2000/svg" xmlns:xlink="http://www.w3.org/1999/xlink" viewBox="0 0 1791.2 719.68"><defs><style>.cls-1{fill:#eae9ff;}.cls-2{fill:#d4af37;}.cls-3{fill:green;}.cls-4{fill:url(#radial-gradient);}.cls-5{fill:url(#radial-gradient-2);}.cls-6{fill:url(#radial-gradient-3);}</style><radialGradient id="radial-gradient" cx="386.13" cy="426.37" r="8.6" gradientUnits="userSpaceOnUse"><stop offset="0.19" stop-color="#e9ff1f"/><stop offset="0.82" stop-color="#d4af37"/></radialGradient><radialGradient id="radial-gradient-2" cx="424.15" cy="426.37" r="8.6" xlink:href="#radial-gradient"/><radialGradient id="radial-gradient-3" cx="462.18" cy="426.37" r="8.6" xlink:href="#radial-gradient"/></defs><path class="cls-1" d="M613.11,419.21A188.51,188.51,0,0,0,532.27,269.7c-2.91-2.05-5.85-4-8.89-5.89a187.37,187.37,0,0,0-93.25-27.95c-1.89-.07-3.78-.1-5.67-.1s-3.77,0-5.63.1a187.34,187.34,0,0,0-91.49,26.9c-3,1.83-6,3.75-8.95,5.76a188.45,188.45,0,0,0-82.57,150.69c-.06,1.76-.09,3.53-.09,5.29s0,3.56.09,5.33A188.49,188.49,0,0,0,316.26,579c2.91,2,5.85,4,8.88,5.88a187.15,187.15,0,0,0,93.69,28.23c1.86.07,3.74.1,5.63.1s3.78,0,5.67-.1a187.36,187.36,0,0,0,95.45-29.35q4.56-2.88,8.92-6a188.54,188.54,0,0,0,78.61-147.93c.06-1.77.09-3.53.09-5.33S613.17,421,613.11,419.21ZM527.46,527.5a145.15,145.15,0,0,1-98,42.51,99.28,99.28,0,0,1-10.06,0,145.59,145.59,0,0,1,0-291c3.36-.14,6.73-.14,10.06,0a145.61,145.61,0,0,1,98,248.51Z" transform="translate(-64.4 -64.66)"/><path d="M429,124.57V291.71c-3-.12-6-.12-9,0V124.57Z" transform="translate(-64.4 -64.66)"/><path d="M429,556.42V726.69h-9V556.42A89.66,89.66,0,0,0,429,556.42Z" transform="translate(-64.4 -64.66)"/><rect x="90.36" y="355.63" width="128.51" height="8.44"/><path d="M265.31,638.39h-71.6V630h71.6a48.13,48.13,0,0,0,42.44-25.37l32.88-61.35,7.44,4-32.88,61.35A56.57,56.57,0,0,1,265.31,638.39Z" transform="translate(-64.4 -64.66)"/><path d="M343,305.84l-35.25-65.7a48.18,48.18,0,0,0-42.44-25.43h-70v-8.44h70a56.58,56.58,0,0,1,49.87,29.88l35.26,65.7Z" transform="translate(-64.4 -64.66)"/><rect x="503.13" y="355.63" width="128.51" height="8.44"/><path d="M657.09,638.39h-71.6a56.55,56.55,0,0,1-49.87-29.81L511.24,563.1l-10.62-19.82,8-3.24,10.06,19.07,24.37,45.47A48.13,48.13,0,0,0,585.49,630h71.6Z" transform="translate(-64.4 -64.66)"/><path d="M507.8,305.84l-7.44-4,35.25-65.7a56.61,56.61,0,0,1,49.88-29.88h70v8.44h-70a48.17,48.17,0,0,0-42.44,25.44Z" transform="translate(-64.4 -64.66)"/><path d="M731.31,598.74A50.14,50.14,0,0,0,645.89,630a47.58,47.58,0,0,0,0,8.44,50.14,50.14,0,1,0,85.42-39.65Zm-10,60.9a36,36,0,1,1,0-50.93A36,36,0,0,1,721.31,659.64Z" transform="translate(-64.4 -64.66)"/><circle cx="90.55" cy="145.84" r="19.81"/><path d="M128.56,438.29a19.81,19.81,0,1,1,0-28A19.83,19.83,0,0,1,128.56,438.29Z" transform="translate(-64.4 -64.66)"/><ellipse cx="90.55" cy="569.51" rx="19.8" ry="19.81"/><path d="M709.85,224.5a19.81,19.81,0,1,1,0-28A19.81,19.81,0,0,1,709.85,224.5Z" transform="translate(-64.4 -64.66)"/><path d="M750.25,438.29a19.81,19.81,0,1,1,0-28A19.81,19.81,0,0,1,750.25,438.29Z" transform="translate(-64.4 -64.66)"/><ellipse cx="631.45" cy="569.51" rx="19.8" ry="19.81"/><circle class="cls-2" cx="268.95" cy="146.79" r="24.48" transform="translate(43.62 342.86) rotate(-86.94)"/><circle class="cls-2" cx="579.98" cy="146.79" r="24.48" transform="translate(338.06 653.46) rotate(-86.94)"/><circle class="cls-2" cx="579.98" cy="701.87" r="24.48" transform="translate(-209.78 1187.53) rotate(-87.62)"/><circle class="cls-2" cx="268.95" cy="701.87" r="24.48" transform="translate(-507.9 876.76) rotate(-87.62)"/><path class="cls-2" d="M204.91,206.27a50.18,50.18,0,1,0,0,8.45A47.7,47.7,0,0,0,204.91,206.27ZM180.41,236a36,36,0,1,1,0-50.93A36,36,0,0,1,180.41,236Z" transform="translate(-64.4 -64.66)"/><circle class="cls-2" cx="90.55" cy="145.84" r="19.81"/><path class="cls-2" d="M164.51,420.29a49.9,49.9,0,1,0,0,8.44A47.58,47.58,0,0,0,164.51,420.29ZM140,449.76a36,36,0,1,1,0-50.94A36,36,0,0,1,140,449.76Z" transform="translate(-64.4 -64.66)"/><path class="cls-2" d="M128.56,438.29a19.81,19.81,0,1,1,0-28A19.83,19.83,0,0,1,128.56,438.29Z" transform="translate(-64.4 -64.66)"/><path class="cls-2" d="M204.91,630a50.17,50.17,0,1,0,0,8.44A47.58,47.58,0,0,0,204.91,630Zm-24.5,29.69a36,36,0,1,1,0-50.93A36,36,0,0,1,180.41,659.64Z" transform="translate(-64.4 -64.66)"/><ellipse class="cls-2" cx="90.55" cy="569.51" rx="19.8" ry="19.81"/><path class="cls-2" d="M731.31,175a50.14,50.14,0,0,0-85.42,31.23,47.7,47.7,0,0,0,0,8.45A50.14,50.14,0,1,0,731.31,175Zm-10,60.92a36,36,0,1,1,0-50.93A36,36,0,0,1,721.31,236Z" transform="translate(-64.4 -64.66)"/><path class="cls-2" d="M709.85,224.5a19.81,19.81,0,1,1,0-28A19.81,19.81,0,0,1,709.85,224.5Z" transform="translate(-64.4 -64.66)"/><path class="cls-2" d="M771.7,388.83a50.12,50.12,0,0,0-85.42,31.46,48.55,48.55,0,0,0,0,8.44,50.14,50.14,0,1,0,85.39-39.9Zm-10,60.93a36,36,0,1,1,0-50.94A36,36,0,0,1,761.71,449.76Z" transform="translate(-64.4 -64.66)"/><path class="cls-2" d="M750.25,438.29a19.81,19.81,0,1,1,0-28A19.81,19.81,0,0,1,750.25,438.29Z" transform="translate(-64.4 -64.66)"/><path class="cls-2" d="M626.71,420.29A202.2,202.2,0,0,0,535,255.16c-2.36-1.55-4.73-3-7.16-4.48A200.52,200.52,0,0,0,429,222.3c-1.5-.05-3-.07-4.51-.07s-3,0-4.48.07a200.1,200.1,0,0,0-97.43,27.55c-2.46,1.4-4.87,2.88-7.23,4.4a202.39,202.39,0,0,0-93.08,166c0,1.4-.05,2.81-.05,4.21s0,2.83.05,4.23a202.13,202.13,0,0,0,91.38,164.89q3.54,2.36,7.18,4.5A200.2,200.2,0,0,0,420,626.72c1.51,0,3,.08,4.48.08s3,0,4.51-.08a200.42,200.42,0,0,0,100.58-29.44c2.41-1.45,4.8-3,7.14-4.58a202.14,202.14,0,0,0,90-164c0-1.4,0-2.83,0-4.23S626.74,421.69,626.71,420.29ZM528.49,577.44c-2.34,1.58-4.7,3.13-7.11,4.61A183.71,183.71,0,0,1,429,609.47c-1.5,0-3,0-4.51,0s-3,0-4.48,0a183.66,183.66,0,0,1-91-26.59c-2.41-1.45-4.8-3-7.14-4.53a185,185,0,0,1-82.32-149.62c0-1.4,0-2.83,0-4.23s0-2.81,0-4.21a185,185,0,0,1,84-150.75c2.34-1.55,4.75-3.05,7.19-4.48A183.88,183.88,0,0,1,420,239.53c1.51,0,3-.05,4.48-.05s3,0,4.51.05a183.78,183.78,0,0,1,90.69,26.37c2.41,1.45,4.8,3,7.13,4.53a185,185,0,0,1,82.64,149.86c0,1.4.05,2.81.05,4.21s0,2.83-.05,4.23A184.94,184.94,0,0,1,528.49,577.44Z" transform="translate(-64.4 -64.66)"/><path d="M424.51,687.94a261.06,261.06,0,0,1-155.39-50.8l2.46-3.36,0-4.27H273l1.11.82a254.58,254.58,0,0,0,301-.19l5,6.79A261,261,0,0,1,424.51,687.94Z" transform="translate(-64.4 -64.66)"/><path d="M570.56,215.52a255,255,0,0,0-291.66-.32l-4.83-6.92a263.4,263.4,0,0,1,301.33.33Z" transform="translate(-64.4 -64.66)"/><path d="M574.45,420.29a149.85,149.85,0,0,0-64.27-118.87c-2.32-1.63-4.65-3.18-7.07-4.68A149,149,0,0,0,429,274.51c-1.5-.05-3-.07-4.51-.07s-3,0-4.48.07a149,149,0,0,0-72.74,21.39c-2.41,1.46-4.8,3-7.11,4.58a149.86,149.86,0,0,0-65.66,119.81c0,1.4-.07,2.81-.07,4.21s0,2.83.07,4.23a149.88,149.88,0,0,0,64,118.63c2.31,1.63,4.65,3.2,7.06,4.68A148.87,148.87,0,0,0,420,574.49c1.48,0,3,.07,4.48.07s3,0,4.51-.07a149,149,0,0,0,75.89-23.34c2.41-1.52,4.78-3.12,7.09-4.8a149.91,149.91,0,0,0,62.5-117.62c0-1.4.08-2.8.08-4.23S574.5,421.69,574.45,420.29Zm-58,96.18a129.69,129.69,0,0,1-87.46,38q-4.47.21-9,0a130,130,0,0,1,0-259.86q4.51-.18,9,0a130,130,0,0,1,87.46,221.9Z" transform="translate(-64.4 -64.66)"/><path d="M673.29,346.73a18.63,18.63,0,1,1,18.63-18.63A18.63,18.63,0,0,1,673.29,346.73Z" transform="translate(-64.4 -64.66)"/><circle cx="673.29" cy="520.9" r="18.63" transform="translate(-112.45 4.22) rotate(-5.66)"/><path d="M175.64,502.27A18.63,18.63,0,1,1,157,520.9,18.63,18.63,0,0,1,175.64,502.27Z" transform="translate(-64.4 -64.66)"/><path d="M175.64,309.47A18.63,18.63,0,1,1,157,328.1,18.63,18.63,0,0,1,175.64,309.47Z" transform="translate(-64.4 -64.66)"/><path d="M450.24,105a25.78,25.78,0,1,1-25.78-25.77A25.78,25.78,0,0,1,450.24,105Z" transform="translate(-64.4 -64.66)"/><path d="M346.7,83.29a18.63,18.63,0,1,1-18.63-18.63A18.63,18.63,0,0,1,346.7,83.29Z" transform="translate(-64.4 -64.66)"/><circle cx="456.46" cy="18.63" r="18.63"/><path d="M398.69,744a25.78,25.78,0,1,1,25.77,25.77A25.77,25.77,0,0,1,398.69,744Z" transform="translate(-64.4 -64.66)"/><path d="M502.23,765.71a18.63,18.63,0,1,1,18.63,18.63A18.63,18.63,0,0,1,502.23,765.71Z" transform="translate(-64.4 -64.66)"/><circle cx="263.67" cy="701.05" r="18.63"/><path class="cls-2" d="M912.3,288.86v-9.18a4.47,4.47,0,0,1,1.85-3.61,6.67,6.67,0,0,1,4.29-1.48h74.48a6.58,6.58,0,0,1,4.4,1.48,4.56,4.56,0,0,1,1.74,3.61v10.16h12.69a7.25,7.25,0,0,1,4.5,1.4,4.24,4.24,0,0,1,1.84,3.52v104.3a4.34,4.34,0,0,1-1.84,3.45,7,7,0,0,1-4.5,1.47H994.36a7,7,0,0,1-4.51-1.47,4.35,4.35,0,0,1-1.84-3.44V360.41H924.79v38.66a4.34,4.34,0,0,1-1.85,3.44,7,7,0,0,1-4.5,1.47H900.85a7,7,0,0,1-4.51-1.47,4.37,4.37,0,0,1-1.84-3.45V293.78a4.34,4.34,0,0,1,1.84-3.44,7,7,0,0,1,4.51-1.48ZM988,333.45V298.76h-62.2v34.69Z" transform="translate(-64.4 -64.66)"/><path class="cls-2" d="M1063,274.59a6.87,6.87,0,0,1,4.36,1.48,4.45,4.45,0,0,1,1.87,3.6V379.81h64V279.67a4.47,4.47,0,0,1,1.84-3.6,7,7,0,0,1,4.5-1.48H1157a7,7,0,0,1,4.5,1.48,4.46,4.46,0,0,1,1.84,3.61V384.79a4.33,4.33,0,0,1-1.84,3.45,7,7,0,0,1-4.5,1.47h-11.26v9.35a4.34,4.34,0,0,1-1.84,3.45,6.69,6.69,0,0,1-4.3,1.47H1065a6.57,6.57,0,0,1-4.4-1.47,4.43,4.43,0,0,1-1.74-3.45V388.89h-12.69a7,7,0,0,1-4.5-1.47,4.33,4.33,0,0,1-1.84-3.45V279.68a4.44,4.44,0,0,1,1.87-3.61,7.13,7.13,0,0,1,4.56-1.48Z" transform="translate(-64.4 -64.66)"/><path d="M1202.66,288.86v-9.18a4.46,4.46,0,0,1,1.84-3.61,6.7,6.7,0,0,1,4.3-1.48h74.48a6.59,6.59,0,0,1,4.4,1.47,4.53,4.53,0,0,1,1.74,3.58v10.08h12.68a7.23,7.23,0,0,1,4.5,1.4,4.26,4.26,0,0,1,1.85,3.53v21.54a4.26,4.26,0,0,1-1.85,3.53,7.23,7.23,0,0,1-4.5,1.4h-16.37a6.89,6.89,0,0,1-4.29-1.39,4.22,4.22,0,0,1-1.85-3.51V298.76h-64.45v81.05h62V359.59h-29.47a6.66,6.66,0,0,1-4.29-1.47,4.43,4.43,0,0,1-1.84-3.59v-14a4.45,4.45,0,0,1,1.84-3.6,6.66,6.66,0,0,1,4.29-1.47h54.43a7,7,0,0,1,4.5,1.48,4.46,4.46,0,0,1,1.85,3.6v44.34a4.31,4.31,0,0,1-1.85,3.43,6.93,6.93,0,0,1-4.5,1.48h-11.25v9.32a4.31,4.31,0,0,1-1.84,3.44,6.69,6.69,0,0,1-4.3,1.47H1210a6.59,6.59,0,0,1-4.4-1.47,4.42,4.42,0,0,1-1.73-3.45V388.89H1191.2a7,7,0,0,1-4.5-1.47,4.33,4.33,0,0,1-1.84-3.45V293.78a4.31,4.31,0,0,1,1.84-3.44,6.91,6.91,0,0,1,4.5-1.48Z" transform="translate(-64.4 -64.66)"/><path d="M1414,314.87v8.22a4.58,4.58,0,0,1-1.74,3.62,6.54,6.54,0,0,1-4.4,1.48h-36.63a6.64,6.64,0,0,1-4.29-1.48,4.48,4.48,0,0,1-1.84-3.62v-9.2h-7.58v85.17a4.31,4.31,0,0,1-1.84,3.44,6.93,6.93,0,0,1-4.5,1.48h-17.6a7,7,0,0,1-4.5-1.47,4.34,4.34,0,0,1-1.84-3.45V279.68a4.46,4.46,0,0,1,1.84-3.61,7,7,0,0,1,4.5-1.48h17.6a7,7,0,0,1,4.5,1.48,4.49,4.49,0,0,1,1.84,3.62v9.21H1369a6.54,6.54,0,0,1,4.4,1.48,4.4,4.4,0,0,1,1.74,3.45V304h26.6V293.83a4.34,4.34,0,0,1,1.84-3.45,6.65,6.65,0,0,1,4.3-1.48h12.89v-9.21a4.52,4.52,0,0,1,1.84-3.62,7,7,0,0,1,4.5-1.48h17.4a7,7,0,0,1,4.5,1.48,4.46,4.46,0,0,1,1.84,3.61V399.06a4.34,4.34,0,0,1-1.84,3.45,7,7,0,0,1-4.5,1.47h-17.4a7,7,0,0,1-4.5-1.48,4.34,4.34,0,0,1-1.84-3.44V314.87Z" transform="translate(-64.4 -64.66)"/><path d="M1590.62,274.59a7,7,0,0,1,4.5,1.48,4.49,4.49,0,0,1,1.84,3.62v14.14a4.25,4.25,0,0,1-1.84,3.53,7.19,7.19,0,0,1-4.5,1.4h-85.94v20.39h68.75a6.92,6.92,0,0,1,4.3,1.39,4.31,4.31,0,0,1,1.84,3.54v15.29a4.28,4.28,0,0,1-1.84,3.53,6.87,6.87,0,0,1-4.3,1.4h-68.75v35.51h85.94a7,7,0,0,1,4.5,1.48,4.34,4.34,0,0,1,1.84,3.45v14.31a4.34,4.34,0,0,1-1.84,3.45,7,7,0,0,1-4.5,1.48H1479.71a7,7,0,0,1-4.5-1.47,4.34,4.34,0,0,1-1.84-3.45V279.68a4.46,4.46,0,0,1,1.84-3.61,7,7,0,0,1,4.5-1.48Z" transform="translate(-64.4 -64.66)"/><path d="M1692.72,359.55a6.54,6.54,0,0,1-4.4-1.48,4.55,4.55,0,0,1-1.74-3.61V343.31h-13.09a6.69,6.69,0,0,1-4.3-1.47,4.35,4.35,0,0,1-1.84-3.46V328.19h-12.69a6.62,6.62,0,0,1-4.29-1.48,4.48,4.48,0,0,1-1.84-3.62v-9.2H1641v85.17a4.31,4.31,0,0,1-1.84,3.44,7,7,0,0,1-4.5,1.48H1617a7,7,0,0,1-4.5-1.47,4.34,4.34,0,0,1-1.84-3.45V279.68a4.46,4.46,0,0,1,1.84-3.61,7,7,0,0,1,4.5-1.48h17.6a7,7,0,0,1,4.5,1.48,4.44,4.44,0,0,1,1.84,3.59v9.16h11.59a6.72,6.72,0,0,1,4.45,1.47,4.39,4.39,0,0,1,1.76,3.44V305h13a6.76,6.76,0,0,1,4.35,1.48,4.32,4.32,0,0,1,1.86,3.45v10.19h12.69a6.67,6.67,0,0,1,4.29,1.48,4.36,4.36,0,0,1,1.85,3.46v9.37h7.36V279.67a4.45,4.45,0,0,1,1.84-3.6,7,7,0,0,1,4.5-1.48h17.4a7,7,0,0,1,4.5,1.48,4.46,4.46,0,0,1,1.84,3.61V399.06a4.34,4.34,0,0,1-1.84,3.45,7,7,0,0,1-4.5,1.47h-17.4a7,7,0,0,1-4.5-1.47,4.34,4.34,0,0,1-1.84-3.45V359.55Z" transform="translate(-64.4 -64.66)"/><path d="M1757.18,298.76a6.87,6.87,0,0,1-4.3-1.4,4.25,4.25,0,0,1-1.84-3.53V279.69a4.49,4.49,0,0,1,1.84-3.62,6.7,6.7,0,0,1,4.3-1.48h92.28a6.7,6.7,0,0,1,4.3,1.48,4.49,4.49,0,0,1,1.84,3.62v14.14a4.25,4.25,0,0,1-1.84,3.53,6.87,6.87,0,0,1-4.3,1.4H1819v100.3a4.33,4.33,0,0,1-1.84,3.45,6.68,6.68,0,0,1-4.29,1.47h-19a6.69,6.69,0,0,1-4.3-1.47,4.33,4.33,0,0,1-1.84-3.45V298.76Z" transform="translate(-64.4 -64.66)"/><path class="cls-3" d="M981.26,512.16v8.22a4.56,4.56,0,0,1-1.74,3.61,6.54,6.54,0,0,1-4.4,1.48H938.5a6.65,6.65,0,0,1-4.3-1.48,4.46,4.46,0,0,1-1.84-3.61v-9.21h-7.57v85.17a4.34,4.34,0,0,1-1.85,3.45,7,7,0,0,1-4.5,1.48H900.85a7,7,0,0,1-4.51-1.48,4.34,4.34,0,0,1-1.84-3.44V477a4.47,4.47,0,0,1,1.84-3.6,7,7,0,0,1,4.51-1.48h17.59a6.93,6.93,0,0,1,4.5,1.48,4.48,4.48,0,0,1,1.85,3.62v9.2h11.45a6.58,6.58,0,0,1,4.4,1.48,4.43,4.43,0,0,1,1.74,3.45v10.2H969v-10.2a4.36,4.36,0,0,1,1.85-3.45,6.65,6.65,0,0,1,4.29-1.48H988V477a4.5,4.5,0,0,1,1.84-3.62,7,7,0,0,1,4.51-1.48h17.39a7,7,0,0,1,4.5,1.48,4.45,4.45,0,0,1,1.84,3.6V596.35a4.31,4.31,0,0,1-1.84,3.44,7,7,0,0,1-4.5,1.48H994.36a7,7,0,0,1-4.51-1.48,4.36,4.36,0,0,1-1.84-3.45V512.16Z" transform="translate(-64.4 -64.66)"/><path class="cls-3" d="M1058,486.15V477a4.46,4.46,0,0,1,1.85-3.6,6.62,6.62,0,0,1,4.29-1.48h74.48a6.53,6.53,0,0,1,4.4,1.48,4.54,4.54,0,0,1,1.74,3.6v10.17h12.69a7.19,7.19,0,0,1,4.5,1.4,4.22,4.22,0,0,1,1.84,3.52v104.3a4.31,4.31,0,0,1-1.84,3.44,7,7,0,0,1-4.5,1.48h-17.39a7,7,0,0,1-4.5-1.48,4.32,4.32,0,0,1-1.85-3.44V557.7h-63.22v38.65a4.32,4.32,0,0,1-1.85,3.44,7,7,0,0,1-4.5,1.48h-17.59a7,7,0,0,1-4.51-1.48,4.34,4.34,0,0,1-1.84-3.44V491.07a4.37,4.37,0,0,1,1.84-3.45,7,7,0,0,1,4.51-1.47Zm75.71,44.59V496.05h-62.2v34.69Z" transform="translate(-64.4 -64.66)"/><path class="cls-3" d="M1284.3,471.88a6.53,6.53,0,0,1,4.4,1.48,4.54,4.54,0,0,1,1.74,3.6v10.18h12.69a7.31,7.31,0,0,1,4.5,1.39,4.25,4.25,0,0,1,1.84,3.53v44.63a4.24,4.24,0,0,1-1.84,3.53,7.24,7.24,0,0,1-4.5,1.39h-11.25v10.18a4.49,4.49,0,0,1-1.85,3.61,6.62,6.62,0,0,1-4.29,1.48h-13.1V563h11.66a6.62,6.62,0,0,1,4.4,1.46,4.38,4.38,0,0,1,1.74,3.42v10.08h12.69a7,7,0,0,1,4.5,1.48,4.48,4.48,0,0,1,1.84,3.62v13.31a4.32,4.32,0,0,1-1.84,3.45,7,7,0,0,1-4.5,1.49h-16.37a6.69,6.69,0,0,1-4.3-1.47,4.29,4.29,0,0,1-1.84-3.41V586.3h-12.69a6.5,6.5,0,0,1-4.39-1.48,4.4,4.4,0,0,1-1.74-3.45V571h-14.12a6.92,6.92,0,0,1-4.3-1.39,4.26,4.26,0,0,1-1.84-3.54V557.7h-25.37v38.65a4.32,4.32,0,0,1-1.85,3.44,7,7,0,0,1-4.5,1.48h-17.59a7,7,0,0,1-4.51-1.48,4.34,4.34,0,0,1-1.84-3.44V477a4.47,4.47,0,0,1,1.84-3.6,7,7,0,0,1,4.51-1.48Zm-4.91,58.86V496.05h-62.2v34.69Z" transform="translate(-64.4 -64.66)"/><path class="cls-3" d="M1354.49,471.88a7,7,0,0,1,4.5,1.47,4.45,4.45,0,0,1,1.84,3.6v38.5h6.55v-9.21a4.59,4.59,0,0,1,1.74-3.62,6.59,6.59,0,0,1,4.4-1.48h12.69V491a4.32,4.32,0,0,1,1.84-3.45,6.64,6.64,0,0,1,4.29-1.48H1405v-9.1a4.42,4.42,0,0,1,1.84-3.58,6.74,6.74,0,0,1,4.3-1.46H1429a6.54,6.54,0,0,1,4.4,1.48,4.57,4.57,0,0,1,1.74,3.62v14.13a4.35,4.35,0,0,1-1.74,3.54,6.82,6.82,0,0,1-4.4,1.4h-11.66v10.24a4.38,4.38,0,0,1-1.74,3.42,6.63,6.63,0,0,1-4.4,1.46h-12.69v10.19a4.53,4.53,0,0,1-1.63,3.46,5.93,5.93,0,0,1-4.1,1.48h-12.68v6.24h11.66A6.7,6.7,0,0,1,1396,534a4.52,4.52,0,0,1,1.84,3.62v10.19h12.69a6.92,6.92,0,0,1,4.29,1.4,4.26,4.26,0,0,1,1.84,3.54V563h12.42a6.4,6.4,0,0,1,4.3,1.46,4.42,4.42,0,0,1,1.7,3.42v10.08h12.69a7,7,0,0,1,4.5,1.48,4.48,4.48,0,0,1,1.84,3.62v13.31a4.32,4.32,0,0,1-1.84,3.45,7,7,0,0,1-4.5,1.49h-16.37a6.69,6.69,0,0,1-4.3-1.47,4.26,4.26,0,0,1-1.84-3.41V586.3H1412.6a6.54,6.54,0,0,1-4.4-1.48,4.4,4.4,0,0,1-1.74-3.45V571h-13.09a6.92,6.92,0,0,1-4.3-1.39,4.26,4.26,0,0,1-1.84-3.54V555.89h-12.69a6.62,6.62,0,0,1-4.29-1.48,4.36,4.36,0,0,1-1.85-3.45v-9.37h-7.57v54.76a4.31,4.31,0,0,1-1.84,3.44,7,7,0,0,1-4.5,1.48h-17.6a7,7,0,0,1-4.5-1.48,4.31,4.31,0,0,1-1.84-3.44V477a4.45,4.45,0,0,1,1.84-3.6,7,7,0,0,1,4.5-1.48Z" transform="translate(-64.4 -64.66)"/><path class="cls-3" d="M1587.76,471.88a7,7,0,0,1,4.5,1.48,4.47,4.47,0,0,1,1.84,3.62v14.13a4.26,4.26,0,0,1-1.84,3.54,7.25,7.25,0,0,1-4.5,1.4h-85.94v20.38h68.75a6.93,6.93,0,0,1,4.3,1.4,4.28,4.28,0,0,1,1.84,3.53v15.29a4.29,4.29,0,0,1-1.84,3.54,6.93,6.93,0,0,1-4.3,1.4h-68.75V577.1h85.94a7,7,0,0,1,4.5,1.48,4.32,4.32,0,0,1,1.84,3.45v14.3a4.32,4.32,0,0,1-1.84,3.45,7,7,0,0,1-4.5,1.49H1476.85a7,7,0,0,1-4.5-1.48,4.31,4.31,0,0,1-1.84-3.44V477a4.45,4.45,0,0,1,1.84-3.6,7,7,0,0,1,4.5-1.48Z" transform="translate(-64.4 -64.66)"/><path class="cls-3" d="M1608,496.05a6.9,6.9,0,0,1-4.29-1.4,4.26,4.26,0,0,1-1.84-3.54V477a4.47,4.47,0,0,1,1.84-3.62,6.62,6.62,0,0,1,4.29-1.48h92.29a6.62,6.62,0,0,1,4.29,1.48,4.48,4.48,0,0,1,1.85,3.62v14.13a4.27,4.27,0,0,1-1.85,3.54,6.9,6.9,0,0,1-4.29,1.4h-30.49v100.3a4.31,4.31,0,0,1-1.84,3.44,6.7,6.7,0,0,1-4.3,1.48h-19a6.7,6.7,0,0,1-4.3-1.48,4.34,4.34,0,0,1-1.84-3.44V496.05Z" transform="translate(-64.4 -64.66)"/><path class="cls-3" d="M1736.72,486.15V477a4.45,4.45,0,0,1,1.84-3.6,6.65,6.65,0,0,1,4.3-1.48h74.48a6.63,6.63,0,0,1,4.4,1.46,4.52,4.52,0,0,1,1.74,3.58V487h12.68a7.28,7.28,0,0,1,4.51,1.4,4.29,4.29,0,0,1,1.84,3.54v13.31a4.29,4.29,0,0,1-1.84,3.54,7.28,7.28,0,0,1-4.51,1.4h-16.37a7,7,0,0,1-4.29-1.38,4.2,4.2,0,0,1-1.84-3.5v-9.26H1749.2v21.37h68.14a6.54,6.54,0,0,1,4.4,1.48,4.4,4.4,0,0,1,1.74,3.44v10.17h12.68a7,7,0,0,1,4.51,1.48,4.5,4.5,0,0,1,1.84,3.61v44.47a4.34,4.34,0,0,1-1.84,3.44,7,7,0,0,1-4.51,1.48h-11.25v9.35a4.33,4.33,0,0,1-1.84,3.45,6.7,6.7,0,0,1-4.3,1.48h-74.69a6.54,6.54,0,0,1-4.39-1.47,4.31,4.31,0,0,1-1.74-3.41V586.3h-12.69a7,7,0,0,1-4.5-1.48,4.32,4.32,0,0,1-1.84-3.45V567.89a4.32,4.32,0,0,1,1.86-3.45,7.12,7.12,0,0,1,4.57-1.48h16.81a6.86,6.86,0,0,1,4.35,1.46,4.25,4.25,0,0,1,1.87,3.41v9.27h64V540.6h-68.35a6.54,6.54,0,0,1-4.39-1.47,4.4,4.4,0,0,1-1.74-3.45V525.51h-12.69a7,7,0,0,1-4.5-1.47,4.48,4.48,0,0,1-1.84-3.61V491.07a4.31,4.31,0,0,1,1.84-3.44,7,7,0,0,1,4.5-1.48Z" transform="translate(-64.4 -64.66)"/><path class="cls-2" d="M360.91,366h6.15v14h-5.74c-5.48,0-7.34,2.09-7.34,8.28a54,54,0,0,0,.9,9,65.42,65.42,0,0,1,1,10.79c.12,7.52-2.48,12-5.85,14.7,3.23,2.59,6,7.09,5.85,14.89a63.55,63.55,0,0,1-1,10.73,57.56,57.56,0,0,0-.9,9.16c0,7,2.81,8.42,7.34,8.42h5.74v14h-6.15c-14.73,0-22.85-7.73-22.85-21.78a81.29,81.29,0,0,1,1.11-11.54,71.11,71.11,0,0,0,1-10.43c0-4-1.28-6.66-7.61-6.66h-3.31v-13.5h3.31c7,0,7.61-3,7.61-6.67a76.88,76.88,0,0,0-1-10.85,82.47,82.47,0,0,1-1.11-11.66C338.06,373.62,346.39,366,360.91,366Z" transform="translate(-64.4 -64.66)"/><path class="cls-4" d="M386.13,417.81a8.71,8.71,0,0,0-6.27,2.59,8.32,8.32,0,0,0-2.36,6,8.64,8.64,0,1,0,8.63-8.63Z" transform="translate(-64.4 -64.66)"/><path class="cls-5" d="M424.16,417.81a8.71,8.71,0,0,0-6.27,2.59,8.31,8.31,0,0,0-2.38,6,8.64,8.64,0,1,0,8.65-8.63Z" transform="translate(-64.4 -64.66)"/><path class="cls-6" d="M462.16,417.81a8.7,8.7,0,0,0-6.25,2.59,8.2,8.2,0,0,0-2.36,6,8.63,8.63,0,1,0,8.61-8.63Z" transform="translate(-64.4 -64.66)"/><path class="cls-2" d="M508.1,409.45a81.69,81.69,0,0,1,1.08-11.23,76.36,76.36,0,0,0,1.06-11.28c0-13.13-8.6-21-23-21h-6v14h5.67c5.47.09,7.41,2.26,7.41,8.28a55.53,55.53,0,0,1-.66,7.08l-.31,2.31a64.43,64.43,0,0,0-1.06,10.42c0,7.53,2.62,12,6,14.69-3.2,2.59-6,7.08-6,14.84a61.82,61.82,0,0,0,1.11,10.63l.3,2.42a52.44,52.44,0,0,1,.62,6.9c0,6.9-2.88,8.33-7.49,8.42h-5.59v14h6.13c14.54,0,22.86-7.93,22.86-21.78a81.36,81.36,0,0,0-1.1-11.54,71.11,71.11,0,0,1-1-10.43c0-4,1.29-6.66,7.6-6.66H519v-13.5h-3.3C508.67,416.12,508.1,413.1,508.1,409.45Z" transform="translate(-64.4 -64.66)"/></svg>